#!OML:ASF I:\Actors\actors\Patient Classification 1\Patient 1\Session 1\Subject1.ASF
:FULLY-SPECIFIED
:DEGREES
159
root -0.563752 17.6043 7.90499 9.60431 -0.113456 -8.73732
lowerback 4.16615 0.160029 6.50877
upperback -10.6454 1.20246 2.15294
thorax -13.9635 0.0249069 -1.44429
lowerneck -13.6172 -1.89583 1.71922
upperneck 15.0077 -3.40719 2.58743
head 6.84913 -1.31479 0.218535
rclavicle 3.52843e-015 -3.3197e-014
rhumerus -1.03553 31.7786 -76.1466
rradius 114.801
rwrist 15.6741
rhand -33.4071 -44.6392
rfingers 7.12502
rthumb -6.60724 -74.5161
lclavicle 3.52843e-015 -3.3197e-014
lhumerus -23.4849 -29.1884 85.5713
lradius 96.6915
lwrist 27.0462
lhand -21.9712 0.239339
lfingers 7.12502
lthumb 4.43661 30.1729
rfemur -4.00736 26.157 24.7625
rtibia 1.74279
rfoot -11.974 -27.5362
rtoes 4.64747
lfemur 3.12812 -45.545 -10.2095
ltibia -4.57268
lfoot -18.7237 53.1438
ltoes 10.8064
160
root -0.562658 17.6023 7.92102 9.63054 -0.100996 -8.73948
lowerback 3.9271 0.243995 6.44457
upperback -10.6153 1.28192 2.11431
thorax -13.767 0.0730303 -1.46311
lowerneck -13.4947 -1.88648 2.10086
upperneck 14.8587 -3.38653 2.14272
head 6.76472 -1.32647 0.017553
rclavicle -2.93207e-015 -8.54774e-015
rhumerus -3.46696 32.2307 -77.5488
rradius 113.541
rwrist 18.5341
rhand -34.6507 -45.7961
rfingers 7.12502
rthumb -7.8076 -75.632
lclavicle -2.93207e-015 -8.54774e-015
lhumerus -24.3601 -28.1743 86.5726
lradius 97.0399
lwrist 26.9366
lhand -22.9723 0.113622
lfingers 7.12502
lthumb 3.46986 30.0651
rfemur -3.97077 26.0227 24.77
rtibia 1.71832
rfoot -11.9458 -27.4103
rtoes 4.57147
lfemur 3.2552 -45.763 -10.321
ltibia -4.58119
lfoot -19.1771 53.3266
ltoes 11.1755
161
root -0.560362 17.5955 7.94058 9.55337 -0.0722165 -8.81302
lowerback 3.64615 0.344096 6.55111
upperback -10.5495 1.39166 2.03752
thorax -13.4989 0.117644 -1.62233
lowerneck -13.4033 -1.91249 2.34204
upperneck 14.8758 -3.41702 1.84189
head 6.74437 -1.35437 -0.12029
rclavicle -4.37326e-015 3.16068e-014
rhumerus -6.74833 32.8083 -79.5395
rradius 111.203
rwrist 20.1308
rhand -34.5101 -43.8252
rfingers 7.12502
rthumb -7.67189 -73.666
lclavicle -4.37326e-015 3.16068e-014
lhumerus -25.339 -27.6621 87.698
lradius 96.5219
lwrist 25.937
lhand -23.212 -0.0816207
lfingers 7.12502
lthumb 3.23837 29.8735
rfemur -3.77128 25.8562 24.9393
rtibia 1.67889
rfoot -11.9532 -27.3078
rtoes 4.41744
lfemur 3.56043 -45.7638 -10.4509
ltibia -4.66709
lfoot -19.3688 53.3263
ltoes 11.3254
162
root -0.55724 17.5856 7.96345 9.36121 -0.0149113 -8.7948
lowerback 3.36998 0.44053 6.61721
upperback -10.4623 1.48639 1.91975
thorax -13.2083 0.158306 -1.80065
lowerneck -13.4883 -2.08251 1.74774
upperneck 15.1988 -3.64271 2.42426
head 6.88546 -1.43847 0.138624
rclavicle 7.45443e-015 1.78906e-014
rhumerus -10.1911 33.6403 -81.6672
rradius 107.598
rwrist 20.3945
rhand -33.2322 -41.6931
rfingers 7.12502
rthumb -6.43836 -71.5753
lclavicle 7.45443e-015 1.78906e-014
lhumerus -26.3143 -27.6017 88.9222
lradius 95.0915
lwrist 24.662
lhand -22.7221 0.170392
lfingers 7.12502
lthumb 3.71145 30.1178
rfemur -3.39826 25.714 25.0762
rtibia 1.62211
rfoot -12.0621 -27.2912
rtoes 4.35722
lfemur 4.03565 -45.6865 -10.8215
ltibia -4.74177
lfoot -19.1431 53.2292
ltoes 10.9975
163
root -0.557178 17.5747 7.98329 9.1209 -0.00370299 -8.66315
lowerback 3.17003 0.558993 6.52368
upperback -10.4109 1.60562 1.81205
thorax -13.0071 0.225165 -1.8819
lowerneck -13.5306 -2.1363 1.3243
upperneck 15.8164 -3.72861 2.84281
head 7.10992 -1.45425 0.330436
rclavicle 1.1778e-014 -4.77083e-015
rhumerus -13.5453 35.0198 -83.7605
rradius 102.887
rwrist 19.1805
rhand -30.5247 -41.5192
rfingers 7.12502
rthumb -3.8242 -71.4646
lclavicle 1.1778e-014 -4.77083e-015
lhumerus -27.3423 -27.9361 90.2284
lradius 92.9605
lwrist 24.288
lhand -21.9519 1.0876
lfingers 7.12502
lthumb 4.45526 31.0207
rfemur -3.01825 25.5958 25.093
rtibia 1.62497
rfoot -12.1882 -27.2522
rtoes 4.22807
lfemur 4.51042 -45.4711 -11.3301
ltibia -4.75511
lfoot -18.7045 53.0292
ltoes 10.3456
164
root -0.559663 17.5652 7.99965 8.80782 -0.0823085 -8.52523
lowerback 3.09656 0.664205 6.33147
upperback -10.3887 1.71863 1.77828
thorax -12.9242 0.299916 -1.82718
lowerneck -13.4485 -2.06708 1.33447
upperneck 16.4115 -3.62615 2.67305
head 7.28445 -1.4092 0.282255
rclavicle -1.61016e-014 -6.75868e-015
rhumerus -16.2902 36.5574 -85.5483
rradius 97.5065
rwrist 16.6901
rhand -23.0111 -43.2681
rfingers 7.12502
rthumb 3.43238 -73.2202
lclavicle -1.61016e-014 -6.75868e-015
lhumerus -28.6059 -28.5283 91.4751
lradius 90.648
lwrist 25.5456
lhand -20.9988 2.72963
lfingers 7.12502
lthumb 5.37553 32.6414
rfemur -2.60963 25.5312 25.1242
rtibia 1.71396
rfoot -12.2867 -27.1464
rtoes 3.96884
lfemur 5.1011 -45.26 -11.9406
ltibia -4.73877
lfoot -18.4939 52.8731
ltoes 9.80637
